<?xml version="1.0" encoding="utf-8"?>
<svg version="1.1" xmlns:xlink="http://www.w3.org/1999/xlink" width="230px" height="260px" xmlns="http://www.w3.org/2000/svg">
  <g>
    <path d="M 0 0  L 230 0  L 230 260  L 0 260  L 0 0  " fill-rule="nonzero" fill="#cccccc" stroke="none" />
    <path d="M 16 16  L 214 16  L 214 244  L 16 244  L 16 16  " fill-rule="nonzero" fill="#ffffff" stroke="none" />
    <path d="M 136.85 73.5  C 127.19 73.5  119.6 65.91  119.6 56.25  C 119.6 46.59  127.19 39  136.85 39  C 146.51 39  154.1 46.59  154.1 56.25  C 154.1 65.91  146.51 73.5  136.85 73.5  " fill-rule="nonzero" fill="#cccccc" stroke="none" />
    <path d="M 22 238  L 22 119.2  L 68.5 65.2  L 133.6 108.4  L 170.8 97.6  L 208 108.4  L 208 238  L 22 238  " fill-rule="nonzero" fill="#169bd5" stroke="none" />
  </g>
</svg>