<?xml version="1.0" standalone="no"?><!DOCTYPE svg PUBLIC "-//W3C//DTD SVG 1.1//EN" "http://www.w3.org/Graphics/SVG/1.1/DTD/svg11.dtd"><svg t="1693137935255" class="icon" viewBox="0 0 1024 1024" version="1.1" xmlns="http://www.w3.org/2000/svg" p-id="31859" xmlns:xlink="http://www.w3.org/1999/xlink" width="200" height="200"><path d="M257.243317 303.056224c-13.846356 0-25.071002 11.224646-25.071002 25.071002s11.224646 25.071002 25.071002 25.071002c13.845333 0 25.071002-11.224646 25.071002-25.071002S271.089673 303.056224 257.243317 303.056224zM257.243317 350.691127c-12.44238 0-22.562878-10.121522-22.562878-22.563902 0-12.443403 10.120498-22.563902 22.562878-22.563902s22.562878 10.120498 22.562878 22.563902C279.806195 340.569606 269.685697 350.691127 257.243317 350.691127z" fill="#ffffff" p-id="31860"></path><path d="M255.843434 309.422212l2.801812 0 0 20.205181-2.801812 0 0-20.205181Z" fill="#ffffff" p-id="31861"></path><path d="M255.941672 326.72632l20.203134 0 0 2.801812-20.203134 0 0-2.801812Z" fill="#ffffff" p-id="31862"></path><path d="M239.460302 462.750319C378.354676 335.865467 517.179464 208.980615 656.052349 82.228793c57.18849-52.247968 142.42785 32.586163 85.012186 85.016279C617.487008 280.122909 493.910505 392.96186 370.332978 505.844813 494.544955 622.62554 618.711905 739.541343 742.945371 856.364025c56.576553 53.15564-28.662807 138.079822-85.059258 84.96716C518.404362 810.141284 378.943077 678.951383 239.460302 547.761482 216.39498 525.96506 215.805556 484.274542 239.460302 462.750319z" fill="#ffffff" p-id="31863"></path></svg>